<svg xmlns="http://www.w3.org/2000/svg" width="26" height="26" viewBox="0 0 48 48">
  <path fill="#E4405F" d="M40 0H8C3.58 0 0 3.58 0 8v32c0 4.42 3.58 8 8 8H40c4.42 0 8-3.58 8-8V8c0-4.42-3.58-8-8-8zM24 38c-6.63 0-12-5.37-12-12s5.37-12 12-12 12 5.37 12 12-5.37 12-12 12zm12-22h-3c-1.11 0-2 .89-2 2v3c0 1.11.89 2 2 2h3c1.11 0 2-.89 2-2v-3c0-1.11-.89-2-2-2zm-4.34 13.73c-2.49.24-5.01.35-7.66.35-2.64 0-5.16-.11-7.66-.35-.2-.02-.38-.09-.53-.24-.15-.15-.22-.33-.24-.53-.24-2.49-.35-5.01-.35-7.66s.11-5.16.35-7.66c.02-.2.09-.38.24-.53.15-.15.33-.22.53-.24 2.49-.24 5.01-.35 7.66-.35 2.64 0 5.16.11 7.66.35.2.02.38.09.53.24.15.15.22.33.24.53.24 2.49.35 5.01.35 7.66s-.11 5.16-.35 7.66c-.02.2-.09.38-.24.53-.15.15-.33.22-.53.24z"/>
</svg>
