<svg xmlns="http://www.w3.org/2000/svg" width="24" height="24" viewBox="0 0 24 24">
    <path fill="#fff" d="M12 0C5.37 0 0 5.37 0 12s5.37 12 12 12 12-5.37 12-12S18.63 0 12 0zm0 21.85c-3.98 0-7.11-.13-9.48-.34a2 2 0 0 1-1.4-.72 2 2 0 0 1-.36-1.78c.18-.67 2.68-7.63 2.78-7.7a2 2 0 0 1 2.59-.36c.12.07 2.66 7.73 2.78 7.8a2 2 0 0 1 0 2.44 2 2 0 0 1-1.44.64zm-1.29-4.46a4.75 4.75 0 0 0 4.74-4.75 4.76 4.76 0 0 0-4.74-4.74 4.76 4.76 0 0 0-4.75 4.74 4.75 4.75 0 0 0 4.75 4.75zm0-6.52a1.76 1.76 0 0 1 0 3.51 1.76 1.76 0 0 1 0-3.51zm6.25 11.2a1 1 0 0 1-1 1h-4.92a1 1 0 0 1-1-1v-4.92a1 1 0 0 1 1-1h4.92a1 1 0 0 1 1 1v4.92z"/>
</svg>
