<svg xmlns="http://www.w3.org/2000/svg" width="26" height="26" viewBox="0 0 48 48">
  <path fill="#0A66C2" d="M44 0H4a4 4 0 00-4 4v40a4 4 0 004 4h40a4 4 0 004-4V4a4 4 0 00-4-4zM15 40H9V19h6v21zM12 16a3 3 0 113-3 3 3 0 01-3 3zM39 40h-6s.1-9 0-10h6v1.7a5.15 5.15 0 01-.3 1.9 3.11 3.11 0 01-1.1 1.4 3.87 3.87 0 01-1.7.5 10 10 0 01-4.3-1v9h6zm-17.8-12H21v-1.6A1.66 1.66 0 0122.6 25h.8a1.7 1.7 0 011.8 1.6V28h1v-6h-5zm-8.2-16h7v1h-7zm3.5 6.1a2.1 2.1 0 00-2.3 2.2 2 2 0 002.2 2.2 2.27 2.27 0 001.5-.7 2.41 2.41 0 00.6-1.6 2.24 2.24 0 00-.8-1.8 2.34 2.34 0 00-1.4-.5zm22.7 16h-6v-1.6a1.66 1.66 0 011.6-1.6h.9a1.66 1.66 0 011.6 1.6V28h1v-4.4a5.34 5.34 0 01-1.7 1.2 4.22 4.22 0 01-2.1.6 4.1 4.1 0 01-2-.5 3.9 3.9 0 01-1.2-1.4 5.35 5.35 0 01-.5-2.3 5.1 5.1 0 01.8-2.9 4.22 4.22 0 012.2-1.5 6.43 6.43 0 013.2-.7 6.17 6.17 0 014.7 2z"/>
</svg>
