<svg xmlns="http://www.w3.org/2000/svg" width="26" height="26" viewBox="0 0 48 48">
  <path fill="#1DA1F2" d="M45.87 11.831a17.865 17.865 0 01-5.145 1.405 9.053 9.053 0 004.005-4.998 18.055 18.055 0 01-5.734 2.193 9.035 9.035 0 00-6.58-2.82 9.032 9.032 0 00-9.03 9.031c0 .708.079 1.4.23 2.072A25.678 25.678 0 013.065 9.698a8.996 8.996 0 001.19 4.525 9.036 9.036 0 004.027 4.748 9.028 9.028 0 01-4.105-1.134v.112a8.996 8.996 0 007.223 8.812 9.075 9.075 0 01-4.1.156 9.034 9.034 0 008.45 6.275 18.104 18.104 0 01-11.206 3.866 25.65 25.65 0 0013.88 4.062c16.602 0 25.675-13.757 25.675-25.675 0-.394-.008-.788-.023-1.18a18.315 18.315 0 004.487-4.652z"/>
</svg>
